<?xml version="1.0" encoding="UTF-8" standalone="no"?>
<!--part of the matt icon theme by sixsixfive released under CC0 (https://creativecommons.org/publicdomain/zero/1.0/) on openclipart-->
<svg xmlns="http://www.w3.org/2000/svg" xmlns:xlink="http://www.w3.org/1999/xlink" viewBox="0 0 128 128">
 <defs id="0">
  <linearGradient id="A">
   <stop id="P"/>
   <stop id="Q" offset="1" stop-opacity="0"/>
  </linearGradient>
  <linearGradient id="B">
   <stop id="R" stop-opacity="0.33"/>
   <stop id="S" offset="1" stop-opacity="0"/>
  </linearGradient>
  <linearGradient id="C">
   <stop id="T" stop-color="#fff"/>
   <stop id="U" offset="1" stop-color="#fff" stop-opacity="0"/>
  </linearGradient>
  <linearGradient id="D">
   <stop id="V" stop-color="#bbb"/>
   <stop id="W" offset="1" stop-color="#9b9b9b"/>
  </linearGradient>
  <linearGradient id="E">
   <stop id="X" stop-color="#eee"/>
   <stop id="Y" offset="1" stop-color="#ddd"/>
  </linearGradient>
  <radialGradient cx="36.794" cy="62.08" r="55.766" id="F" xlink:href="#E" gradientUnits="userSpaceOnUse" gradientTransform="matrix(0.7667623,-0.104838,0.05399168,0.3948832,10.082408,-2.9781214)"/>
  <radialGradient cx="28.02" cy="16.985" r="62.2" id="G" xlink:href="#D" gradientUnits="userSpaceOnUse" gradientTransform="matrix(1.5841217,-0.2442028,0.1394764,0.9047707,-16.750946,26.630343)"/>
  <filter x="-0.012" y="-0.396" width="1.025" height="1.792" color-interpolation-filters="sRGB" id="H">
   <feGaussianBlur stdDeviation="0.59926" id="Z"/>
  </filter>
  <linearGradient y1="29.321" x2="0" y2="25.688" id="I" xlink:href="#A" gradientUnits="userSpaceOnUse"/>
  <radialGradient cx="52.981" cy="-3.245" r="53.55" id="J" xlink:href="#C" gradientUnits="userSpaceOnUse" gradientTransform="matrix(1.8022603,0.02656491,-0.01237284,0.8394186,-30.322336,8.4010665)"/>
  <radialGradient cx="58" cy="-21.826" r="59.896" id="K" xlink:href="#C" gradientUnits="userSpaceOnUse" gradientTransform="matrix(1.9737017,-0.04274788,0.01357032,0.6265521,-54.434832,27.088068)"/>
  <linearGradient y1="109.56" x2="0" y2="101.48" id="L" xlink:href="#B" gradientUnits="userSpaceOnUse"/>
  <radialGradient cx="65.14" cy="106.7" r="63.15" id="M" xlink:href="#A" gradientUnits="userSpaceOnUse" gradientTransform="matrix(1,0,0,0.05882353,0,100.42419)"/>
  <filter color-interpolation-filters="sRGB" id="N">
   <feGaussianBlur stdDeviation="1.88808" id="a"/>
  </filter>
  <filter x="-0.02" y="-0.345" width="1.041" height="1.689" color-interpolation-filters="sRGB" id="O">
   <feGaussianBlur stdDeviation="1.06662" id="b"/>
  </filter>
 </defs>
 <path d="m 128.29104,106.70071 a 63.154858,3.7149916 0 1 1 -126.3097129,0 63.154858,3.7149916 0 1 1 126.3097129,0 z" transform="matrix(1.1470588,0,0,1,-10.715034,-0.7429983)" id="1" opacity="0.541" fill="url(#M)" filter="url(#O)"/>
 <path d="m 17.78125,11.09375 c -3.388298,0 -6.1875,2.799208 -6.1875,6.1875 l 0,3.9375 c -2.9224034,0.486036 -5.21875,2.95177 -5.21875,6 l 0,76.09375 c 6e-7,3.38829 2.7991985,6.1875 6.1875,6.1875 l 103.8125,0 c 3.3883,0 6.21875,-2.77627 6.21875,-6.1875 l 0,-76.09375 c 0,-3.411225 -2.83045,-6.1875 -6.21875,-6.1875 l -59.78125,0 0,-3.75 c 0,-3.388299 -2.799205,-6.1875 -6.1875,-6.1875 l -32.625,0 z" transform="matrix(0.9652278,0,0,0.9652278,2.9590038,0.385754)" id="2" fill="#898989"/>
 <path d="m 20.114824,13.348291 c -2.058203,0 -3.710094,1.651896 -3.710094,3.710095 l 0,5.881857 -1.327188,0 c -2.058204,0 -3.710095,1.651896 -3.710095,3.710094 l 0,73.447803 c 0,2.05819 1.651891,3.71009 3.710095,3.71009 l 100.202718,0 c 2.05819,0 3.74026,-1.6519 3.74026,-3.71009 l 0,-73.447803 c 0,-2.058198 -1.68206,-3.710094 -3.74026,-3.710094 l -59.964784,0 0,-5.881857 c 0,-2.058198 -1.651901,-3.710095 -3.710094,-3.710095 l -31.490558,0 z" id="3" fill="url(#F)"/>
 <path d="m 20.125,14.625 c -1.366107,0 -2.4375,1.071396 -2.4375,2.4375 l 0,5.875 a 1.2868764,1.2868764 0 0 1 -1.28125,1.28125 l -1.34375,0 c -1.366108,0 -2.40625,1.058373 -2.40625,2.4375 l 0,73.4375 c 0,1.37912 1.040145,2.4375 2.40625,2.4375 l 100.21875,0 c 1.36609,0 2.46875,-1.08444 2.46875,-2.4375 l 0,-73.4375 c 0,-1.353076 -1.10265,-2.4375 -2.46875,-2.4375 l -59.96875,0 A 1.2868764,1.2868764 0 0 1 54.03125,22.9375 l 0,-5.875 c 10e-7,-1.366097 -1.071406,-2.4375 -2.4375,-2.4375 l -31.46875,0 z" id="4" fill="none" stroke="url(#J)" stroke-linejoin="bevel" stroke-linecap="round" stroke-width="2"/>
 <path d="M 122.21875,25.687905 6.375,25.711212 l 0,3.338334 c 6e-7,0.148649 2.7991985,0.271454 6.1875,0.271454 l 103.8125,0 c 3.3883,0 6.21875,-0.121799 6.21875,-0.271454 l 0,-3.338334 c 0,-0.0075 -0.0174,-0.0146 -0.0312,-0.02194 -0.11616,-3.06e-4 -0.22602,-0.0014 -0.34375,-0.0014 z" transform="matrix(0.9652278,0,0,1.3063538,2.9590038,-9.6164018)" id="5" opacity="0.429" fill="url(#I)" filter="url(#H)"/>
 <path d="M 122.21875,26.6875 4.875,27.21875 c -3.2470681,0 -5.9375,2.690433 -5.9375,5.9375 a 2.4088386,2.4088386 0 0 0 0,0.125 l 3.65625,70.34375 0,0.125 0.03125,0 c 0.072883,3.21136 2.7347163,5.8125 5.9375,5.8125 l 111.8125,0 c 3.22599,0 5.90286,-2.65624 5.9375,-5.875 2.3e-4,-0.021 0,-0.0414 0,-0.0625 l 1.84375,-70.9375 a 2.4088386,2.4088386 0 0 0 0,-0.0625 c 0,-3.247067 -2.69043,-5.9375 -5.9375,-5.9375 z" transform="matrix(0.9652278,0,0,0.9652278,2.9590038,0.385754)" id="6" fill="#898989"/>
 <path d="M 7.6709722,28.976586 120.91382,28.452911 c 1.89221,0 3.41556,1.523335 3.41556,3.415548 l -1.7598,68.541721 c 0,1.89221 -1.52334,3.41554 -3.41555,3.41554 l -107.945208,0 c -1.8922133,0 -3.4155458,-1.52333 -3.4155458,-3.41554 L 4.2554238,32.392135 c 0,-1.892214 1.5233351,-3.415549 3.4155484,-3.415549 z" id="7" fill="url(#G)"/>
 <path d="m 120.90625,29.5625 -113.25,0.53125 c -1.2733918,0 -2.2812501,1.026593 -2.28125,2.3125 l 3.53125,67.9375 a 1.1367412,1.1367412 0 0 1 0,0.0625 c 0,1.27339 1.0265955,2.28125 2.3125,2.28125 l 107.9375,0 c 1.2859,0 2.28125,-0.99535 2.28125,-2.28125 a 1.1367412,1.1367412 0 0 1 0,-0.0312 l 1.78125,-68.5 c 0,-0.01038 1.4e-4,-0.0209 0,-0.03125 -0.0166,-1.258974 -1.0495,-2.28125 -2.3125,-2.28125 z" id="8" fill="none" stroke="url(#K)" stroke-linejoin="bevel" stroke-linecap="round" stroke-width="1.949"/>
 <path d="M 122.21875,26.6875 4.875,27.21875 c -3.2470681,0 -5.9375,2.690433 -5.9375,5.9375 a 2.4088386,2.4088386 0 0 0 0,0.125 l 3.65625,70.34375 0,0.125 0.03125,0 c 0.072883,3.21136 2.7347163,5.8125 5.9375,5.8125 l 111.8125,0 c 3.22599,0 5.90286,-2.65624 5.9375,-5.875 2.3e-4,-0.021 0,-0.0414 0,-0.0625 l 1.84375,-70.9375 a 2.4088386,2.4088386 0 0 0 0,-0.0625 c 0,-3.247067 -2.69043,-5.9375 -5.9375,-5.9375 z" transform="matrix(0.9652278,0,0,0.9652278,2.9590038,0.385754)" id="9" fill="url(#L)" filter="url(#N)"/>
</svg>
